# xmcd
#
# Track frame offsets:
# 150
# 18934
# 38803
# 63197
# 79086
# 96380
# 111162
# 129481
# 146466
# 160194
# 176181
# 193002
# 213526
# 228498
#
# Disc length: 3310 seconds
#
#
# Revision: 1
# Processed by: cddbd v1.5.1PL0 Copyright (c) Steve Scherf et al.
# Submitted via: FreeRIP 2.70 
#
DISCID=c00cec0e
DTITLE=Patrícia e Adriana - Patrícia e Adriana - 1° CD
DYEAR=1900
DGENRE=Country
TTITLE0=Escuta o meu coração
TTITLE1=Vim pra dizer que te amo
TTITLE2=O mais fraco coração
TTITLE3=Não diga que me ama
TTITLE4=Nuvem de lágrimas
TTITLE5=Contemplando o Pantanal
TTITLE6=Não dá mais
TTITLE7=Mercedita
TTITLE8=Brigas
TTITLE9=Chora peito
TTITLE10=Mico de conquistador
TTITLE11=Tudo o que eu vivo (Lê cose che vivi)
TTITLE12=Antes de ir
TTITLE13=Assim é o nosso amor
EXTD=
EXTT0=
EXTT1=
EXTT2=
EXTT3=
EXTT4=
EXTT5=
EXTT6=
EXTT7=
EXTT8=
EXTT9=
EXTT10=
EXTT11=
EXTT12=
EXTT13=
PLAYORDER=
